<?xml version="1.0" encoding="UTF-8"?>
<!DOCTYPE svg PUBLIC "-//W3C//DTD SVG 1.1//EN" "http://www.w3.org/Graphics/SVG/1.1/DTD/svg11.dtd">
<!-- Creator: CorelDRAW 2018 -->
<svg xmlns="http://www.w3.org/2000/svg" xml:space="preserve" version="1.1" style="shape-rendering:geometricPrecision; text-rendering:geometricPrecision; image-rendering:optimizeQuality; fill-rule:evenodd; clip-rule:evenodd"
viewBox="0 0 19.93 19.9"
 xmlns:xlink="http://www.w3.org/1999/xlink">
 <defs>
  <style type="text/css">
   <![CDATA[
    .fil0 {fill:#264796}
   ]]>
  </style>
 </defs>
 <g id="подменю_x0020_2_x0020_значок_x0020_о_x0020_нас">
  <metadata id="CorelCorpID_0Corel-Layer"/>
  <g id="_-2094202568">
   <path class="fil0" d="M9.58 1.09c1.65,0 2.67,0.19 4.11,0.8 0.52,0.22 0.96,0.5 1.39,0.79 0.33,0.22 0.95,0.72 1.21,1 3.34,3.53 3.44,9 -0.02,12.49 -3.43,3.47 -8.89,3.55 -12.46,0.18 -2.44,-2.31 -3.55,-6.34 -2.05,-9.84 0.58,-1.36 1.33,-2.35 2.29,-3.21 1.44,-1.29 3.51,-2.22 5.53,-2.22zm-0.41 -1.06c-2.48,0.19 -4.33,1.12 -6.05,2.65 -0.58,0.52 -1.26,1.39 -1.68,2.08 -0.32,0.53 -0.57,1.04 -0.82,1.66 -0.51,1.28 -0.71,2.83 -0.59,4.34 0.4,5.25 4.98,9.57 10.76,9.12 5.2,-0.41 9.58,-4.98 9.1,-10.71 -0.17,-2.07 -0.89,-3.85 -2.07,-5.38 -1.96,-2.56 -5.31,-4 -8.65,-3.76z"/>
   <polygon class="fil0" points="6.65,9.03 8.33,9.03 8.34,14.81 6.46,14.81 6.46,15.98 13.46,15.98 13.46,14.81 11.87,14.81 11.87,7.86 6.65,7.85 "/>
   <path class="fil0" d="M9.73 2.97c-0.87,0.15 -1.59,0.99 -1.4,2.07 0.15,0.84 1.01,1.58 2.06,1.39 0.84,-0.16 1.58,-1 1.39,-2.06 -0.15,-0.84 -1,-1.58 -2.05,-1.39z"/>
  </g>
 </g>
</svg>
