<?xml version="1.0" encoding="UTF-8"?>
<!DOCTYPE svg PUBLIC "-//W3C//DTD SVG 1.1//EN" "http://www.w3.org/Graphics/SVG/1.1/DTD/svg11.dtd">
<!-- Creator: CorelDRAW 2018 -->
<svg xmlns="http://www.w3.org/2000/svg" xml:space="preserve" version="1.1" style="shape-rendering:geometricPrecision; text-rendering:geometricPrecision; image-rendering:optimizeQuality; fill-rule:evenodd; clip-rule:evenodd"
viewBox="0 0 357.26 343.42"
 xmlns:xlink="http://www.w3.org/1999/xlink">
 <defs>
  <style type="text/css">
   <![CDATA[
    .fil0 {fill:#264796}
   ]]>
  </style>
 </defs>
 <g id="подменю_x0020_2_x0020_значок_x0020_контакты">
  <metadata id="CorelCorpID_0Corel-Layer"/>
  <g id="_1097653624">
   <path class="fil0" d="M-0 17.15l0 5.68c1.47,2.72 1.57,9.16 8.23,13.9 6.72,4.79 9.16,3.77 18.12,4.62 14.97,1.42 23,5.36 27.26,17.9 2.87,8.44 19.48,96.63 22.91,112.2 2.8,12.74 4.55,25.05 7.79,37.46 5.67,21.76 23.57,40.24 43.34,46.8 14.39,4.78 23.91,5.18 40.14,5.18l90.17 0c8.34,0 12.74,0.53 20.29,-2.21 23.3,-8.47 61.75,-87.56 75.65,-116.64 1.07,-2.23 2.08,-5.95 3.36,-8.07l0 -6.41c-1.75,-2.85 -1.49,-6.17 -4.47,-9.65 -8.37,-9.76 -20.44,-10.24 -29.16,-3.29 -4.59,3.66 -7.63,10.83 -10.62,17.35 -2.89,6.3 -6.04,12.04 -9.12,18.26 -7.77,15.71 -24.84,46.87 -35.38,61.67 -1.69,2.37 -4.69,5.77 -5.89,7.77 -9.68,0.77 -49.9,0.14 -62.87,0.14 -14.93,0 -47.77,1.81 -59.16,-3.22 -17.02,-7.52 -17.53,-21.13 -21.38,-41.47l-20.86 -104.12c-3.7,-18.56 -6.25,-32.92 -16.63,-45.55 -8.63,-10.5 -20.69,-19.51 -38.92,-23.29 -7.21,-1.5 -21.2,-3.22 -28.04,-1.23 -11.05,3.22 -12.19,11.58 -14.76,16.25z"/>
   <path class="fil0" d="M179.14 82.58c-6.57,0.55 -14.87,0.13 -21.63,0.13 -6.84,0 -14.64,-1.12 -16.46,5.17 -1.09,3.77 0.32,5.93 2.16,8.44l13.78 18.2c10.15,12.83 29.01,32.96 40.97,44.65 10.37,10.13 12.15,4.07 24.56,-8.13 3.77,-3.71 6.68,-7.06 10.62,-11.08 3.85,-3.94 6.69,-7.44 10.04,-11.07l19.31 -23.48c5.25,-6.97 12.84,-14.75 6.58,-20.76 -4.11,-3.95 -23.42,-0.75 -35.83,-2.4 -0.89,-15.17 -1.51,-30.36 -2.85,-45.25 -0.85,-9.47 -0.04,-15.7 -5.23,-18.6 -10.14,-5.64 -28.64,-5.2 -38.6,0.22 -3.28,1.78 -3.29,3.72 -3.77,8.06 -1.84,16.45 -2.04,44.51 -3.64,55.9z"/>
   <path class="fil0" d="M262.72 343.42l10.88 0 3.03 -1.35c7.16,-2.32 12.08,-4.42 17.51,-10.97 4.65,-5.61 8.86,-14.33 7.96,-24.81 -1.49,-17.32 -16.09,-31.7 -34.43,-31.55 -17.99,0.15 -32.4,14.38 -33.86,31.55 -1.35,15.85 9.39,30.83 22.44,34.9l6.48 2.22z"/>
   <path class="fil0" d="M139.33 343.42l9.6 0c4.45,-2.4 20.93,-4.18 27.17,-21.9 9.16,-26.04 -10.35,-46.36 -31.15,-46.76 -18.51,-0.35 -33.56,14.32 -34.89,31.54 -1.04,13.41 6.12,26.2 17.27,32.46 3.85,2.16 8.95,2.93 11.99,4.66z"/>
  </g>
 </g>
</svg>
