<?xml version="1.0" encoding="UTF-8"?>
<!DOCTYPE svg PUBLIC "-//W3C//DTD SVG 1.1//EN" "http://www.w3.org/Graphics/SVG/1.1/DTD/svg11.dtd">
<!-- Creator: CorelDRAW 2018 -->
<svg xmlns="http://www.w3.org/2000/svg" xml:space="preserve" version="1.1" style="shape-rendering:geometricPrecision; text-rendering:geometricPrecision; image-rendering:optimizeQuality; fill-rule:evenodd; clip-rule:evenodd"
viewBox="0 0 236.25 270.07"
 xmlns:xlink="http://www.w3.org/1999/xlink">
 <defs>
  <style type="text/css">
   <![CDATA[
    .fil0 {fill:#264796}
   ]]>
  </style>
 </defs>
 <g id="подменю_x0020_2_x0020_значок_x0020_контакты">
  <metadata id="CorelCorpID_0Corel-Layer"/>
  <g id="_2048360784">
   <path class="fil0" d="M16.79 16.83l202.69 0.04 -0.01 236.36 -202.7 -0.05 0.02 -236.35zm-3.27 253.24l207.85 0c2.28,-1.04 4.42,-0.99 6.82,-2.54 7.88,-5.06 8.04,-11.78 8.04,-19.9l0 -223.91c0,-6.04 0.36,-11.51 -2.63,-15.84 -1.37,-1.98 -2.92,-3.49 -4.63,-4.82 -2.34,-1.82 -4.46,-1.74 -6.25,-3.06l-207.84 0c-4.29,1.94 -6.44,0.49 -11.68,7.16 -3.38,4.3 -3.19,9.03 -3.19,15.27l0 223.91c-0,6.03 -0.33,11.44 2.62,15.86 1.97,2.96 4.72,5.31 7.73,6.46l3.15 1.4z"/>
   <path class="fil0" d="M56.91 101.68c-4.51,1.15 -8.04,6.34 -5.32,11.88 2.51,5.12 7.5,4.56 14.33,4.56 12.56,0 110.07,0.62 113.54,-0.3 4.08,-1.08 8.02,-6.21 5.25,-11.84 -2.62,-5.31 -7.74,-4.62 -14.39,-4.62l-75.93 0c-6.92,0 -32.8,-0.87 -37.49,0.32z"/>
   <path class="fil0" d="M56.8 202.99c-4.66,1.26 -7.92,6.68 -5.17,11.92 2.76,5.26 7.8,4.43 14.73,4.43l75.5 0c6.71,0 33.3,0.86 37.81,-0.35 4.28,-1.14 7.72,-6.67 4.97,-11.96 -2.64,-5.07 -8.11,-4.35 -14.73,-4.36 -12.51,-0.01 -109.53,-0.64 -113.1,0.33z"/>
   <path class="fil0" d="M60.31 168.72l116.05 0 -0.43 0c13.19,0 12.47,-16.76 0.43,-16.76l-116.05 -0c-12.93,0 -12.97,16.76 0,16.76z"/>
   <path class="fil0" d="M107.24 51.1c-7.1,2.09 -7.98,11.67 -1.89,15.17 3.73,2.14 18.61,1.14 23.99,1.14 6.72,0 47.24,0.47 50.28,-0.32 7.01,-1.83 7.99,-11.65 1.82,-15.24 -3.59,-2.09 -18.74,-1.11 -24.06,-1.11 -7.78,-0 -45.81,-0.92 -50.15,0.36z"/>
  </g>
 </g>
</svg>
