<?xml version="1.0" encoding="UTF-8"?>
<!DOCTYPE svg PUBLIC "-//W3C//DTD SVG 1.1//EN" "http://www.w3.org/Graphics/SVG/1.1/DTD/svg11.dtd">
<!-- Creator: CorelDRAW 2018 -->
<svg xmlns="http://www.w3.org/2000/svg" xml:space="preserve" version="1.1" style="shape-rendering:geometricPrecision; text-rendering:geometricPrecision; image-rendering:optimizeQuality; fill-rule:evenodd; clip-rule:evenodd"
viewBox="0 0 16.89 21.96"
 xmlns:xlink="http://www.w3.org/1999/xlink">
 <defs>
  <style type="text/css">
   <![CDATA[
    .fil0 {fill:#264796}
   ]]>
  </style>
 </defs>
 <g id="подменю_x0020_2_x0020_значок_x0020_документы">
  <metadata id="CorelCorpID_0Corel-Layer"/>
  <g id="_1163608136">
   <path class="fil0" d="M13.46 20.25l-10.03 0c-0.31,0 -0.42,-0.04 -0.66,-0.13 -0.19,-0.07 -0.1,-0.04 -0.28,-0.14l-0.12 -0.08c-0.2,-0.17 -0.11,-0.06 -0.32,-0.32 -0.09,-0.1 -0.09,-0.13 -0.15,-0.25 -0.07,-0.12 -0.04,-0.09 -0.09,-0.22 -0.05,-0.11 -0.09,-0.3 -0.09,-0.44l0 -15.44c0,-0.36 0.24,-0.81 0.49,-1.06 0.06,-0.06 0.14,-0.12 0.21,-0.18 0.23,-0.17 0.57,-0.3 0.86,-0.3l6.23 0c0.1,0 0.24,0.07 0.3,0.14 0.01,0.01 0.01,0.01 0.02,0.02 0.07,0.07 0.05,0.03 0.1,0.13 0.12,0.22 0.13,0.29 0.16,0.55 0.07,0.68 -0.01,3.28 0.05,3.54 0.02,0.08 0.06,0.19 0.1,0.26 0.03,0.06 0.12,0.16 0.17,0.2 0.07,0.05 0.12,0.11 0.22,0.14 0.32,0.12 0.61,0.07 1,0.07 0.63,0 2.32,-0.03 2.83,0.06 0.2,0.04 0.37,0.09 0.52,0.24 0.02,0.02 0.03,0.02 0.05,0.04 0.08,0.09 0.15,0.29 0.15,0.41l0 11.16c0,0.3 -0.14,0.66 -0.33,0.9 -0.07,0.09 -0.12,0.14 -0.2,0.22 -0.11,0.11 -0.22,0.18 -0.35,0.26 -0.06,0.04 -0.08,0.04 -0.15,0.07 -0.23,0.08 -0.38,0.14 -0.7,0.14zm-13.46 -17.01l0 15.49c0,0.36 0.1,0.68 0.21,1.01l0.12 0.29c0.03,0.06 0.03,0.09 0.06,0.14 0.03,0.05 0.05,0.07 0.08,0.13 0.06,0.1 0.11,0.16 0.17,0.25l0.16 0.2c0,0 0.01,0.01 0.01,0.01 0,0 0.01,0.01 0.01,0.01l0.21 0.22c0.13,0.12 0.25,0.23 0.39,0.32l0.04 0.03c0.1,0.08 0.22,0.14 0.32,0.2l0.51 0.22c0.3,0.12 0.71,0.19 1.05,0.19l10.22 0c0.28,0 0.49,-0.05 0.72,-0.1 0.12,-0.02 0.21,-0.06 0.32,-0.09 0.44,-0.15 0.83,-0.39 1.17,-0.7 0.05,-0.05 0.07,-0.04 0.11,-0.1 0.06,-0.08 0.09,-0.09 0.14,-0.15l0.14 -0.17c0.22,-0.29 0.4,-0.61 0.52,-0.95l0.1 -0.32c0.06,-0.24 0.08,-0.46 0.08,-0.75l0 -11.86c0,-0.14 -0.01,-0.27 -0.04,-0.38l-0.11 -0.31c-0.06,-0.15 -0.24,-0.46 -0.35,-0.58l-0.23 -0.3c-0.07,-0.09 -0.18,-0.18 -0.25,-0.28 -0.07,-0.1 -0.17,-0.18 -0.25,-0.28l-0.2 -0.22c-0.04,-0.04 -0.06,-0.06 -0.1,-0.1l-0.26 -0.26c-0.02,-0.02 -0.03,-0.04 -0.05,-0.05l-0.26 -0.25c-0.03,-0.03 -0.03,-0.02 -0.06,-0.04l-1.05 -1.05c-0.02,-0.02 -0.04,-0.03 -0.06,-0.05l-0.99 -0.99c-0.06,-0.08 -0.33,-0.31 -0.42,-0.41 -0.04,-0.05 -0.07,-0.06 -0.12,-0.1 -0.04,-0.04 -0.06,-0.07 -0.1,-0.1l-0.05 -0.04c-0,-0 -0.01,-0 -0.01,-0.01l-0.96 -0.71c-0.14,-0.09 -0.51,-0.22 -0.67,-0.22l-7.21 0c-0.03,0 -0.04,0.01 -0.06,0.01 -0.18,0.01 -0.37,0.05 -0.55,0.11 -0.06,0.02 -0.1,0.02 -0.16,0.04 -0.06,0.02 -0.1,0.03 -0.15,0.06 -0.09,0.04 -0.2,0.07 -0.28,0.12l-0.31 0.18c-0.35,0.24 -0.64,0.48 -0.89,0.81l-0.14 0.2c-0,0 -0.01,0.01 -0.01,0.02l-0.33 0.68c-0.09,0.27 -0.12,0.34 -0.17,0.64 -0.02,0.12 -0.03,0.23 -0.03,0.37z"/>
   <path class="fil0" d="M3.29 16.05c0,0.21 0.09,0.42 0.23,0.56l0.07 0.07c0.32,0.28 0.64,0.21 1.07,0.21l6.74 0c0.28,0 1.29,0.03 1.47,-0.02 0.08,-0.02 0.2,-0.06 0.27,-0.11 0.14,-0.09 0.28,-0.25 0.34,-0.41 0.1,-0.27 0.08,-0.57 -0.09,-0.8 -0.17,-0.23 -0.41,-0.37 -0.71,-0.37l-8.57 0c-0.17,0 -0.33,0.08 -0.46,0.16 -0.19,0.13 -0.35,0.41 -0.35,0.7z"/>
   <path class="fil0" d="M3.29 9.27c0,0.25 0.09,0.46 0.26,0.62 0.06,0.06 0.19,0.15 0.27,0.18l0.15 0.04c0.08,0.01 0.11,0.02 0.21,0.02l8.4 0c0.36,0 0.67,-0.12 0.84,-0.43 0.12,-0.21 0.15,-0.47 0.06,-0.71 -0.02,-0.05 -0.04,-0.11 -0.06,-0.15l-0.15 -0.18c-0.14,-0.13 -0.34,-0.23 -0.54,-0.23l-8.67 0c-0.1,0 -0.24,0.05 -0.32,0.09 -0.07,0.04 -0.06,0.04 -0.12,0.09 -0.05,0.04 -0.08,0.04 -0.11,0.09l-0.09 0.11c-0.07,0.09 -0.14,0.33 -0.14,0.46z"/>
   <path class="fil0" d="M3.29 12.65c0,0.14 0.04,0.26 0.08,0.36 0.07,0.18 0.21,0.3 0.37,0.39 0.13,0.07 0.21,0.12 0.42,0.12l6.74 0c0.14,0 0.27,-0.02 0.38,-0.06 0.17,-0.07 0.33,-0.19 0.42,-0.34 0.02,-0.03 0.02,-0.03 0.04,-0.07 0.16,-0.27 0.12,-0.79 -0.18,-1.03 -0.19,-0.15 -0.35,-0.23 -0.63,-0.23l-6.81 0c-0.16,0 -0.35,0.07 -0.46,0.16 -0.04,0.03 -0.08,0.06 -0.12,0.1l-0.14 0.17c-0.06,0.1 -0.12,0.3 -0.12,0.43z"/>
  </g>
 </g>
</svg>
