<?xml version="1.0" encoding="UTF-8"?>
<!DOCTYPE svg PUBLIC "-//W3C//DTD SVG 1.1//EN" "http://www.w3.org/Graphics/SVG/1.1/DTD/svg11.dtd">
<!-- Creator: CorelDRAW 2018 -->
<svg xmlns="http://www.w3.org/2000/svg" xml:space="preserve" version="1.1" style="shape-rendering:geometricPrecision; text-rendering:geometricPrecision; image-rendering:optimizeQuality; fill-rule:evenodd; clip-rule:evenodd"
viewBox="0 0 5690.36 4466.7"
 xmlns:xlink="http://www.w3.org/1999/xlink">
 <defs>
  <style type="text/css">
   <![CDATA[
    .fil0 {fill:#264796}
   ]]>
  </style>
 </defs>
 <g id="подменю_x0020_2_x0020_значок_x0020_контакты">
  <metadata id="CorelCorpID_0Corel-Layer"/>
  <g id="_2048371824">
   <path class="fil0" d="M1897.47 2256.08l505.63 -0 0.36 502.97 -509.5 0 3.51 -502.97zm-360.63 -1540.16c361.97,-267.08 1105.6,-307.39 1362.25,42.15 174.05,237.06 142.74,470.97 -23.7,663.8 -71.64,83 -401.62,309.25 -552.17,348.87l-8.23 283.08c-99.47,0.51 -256.17,11.79 -347.97,-7.87l-5.62 -513.33c562.13,-86.89 641.09,-423.97 453.63,-556.09 -194.95,-137.4 -502.54,-44.41 -701.56,55.05 -45.18,22.58 -148.81,96.15 -176.64,102.75l0 -418.42zm-1536.84 904.57c0,552.34 414.61,1048.55 847.54,1277.63 -175.29,331.28 -68.16,153.57 -258.33,399.45 -51.44,66.51 -108.02,102.57 -154.14,175.09 -49.01,77.06 -15.99,184.44 83.58,184.44 211.71,0 625.97,-150.55 826.81,-248.43l338.61 -201.96c14.22,-2.48 193.81,27.52 228.03,30.97 407.42,41.01 846.21,4.71 1217.19,-119.74 205.08,-68.8 468.1,-176.94 642.38,-306.36 179.19,-133.08 349.52,-286.84 476.32,-472.41 57.61,-84.3 121.06,-206.89 155.95,-312.1 34.11,-102.89 77.29,-292.89 74.58,-406.24 -5.86,-244.52 -100.67,-519.49 -235.64,-713.92 -591.72,-852.37 -1926.89,-1087.38 -2884.72,-774.49 -533.51,174.28 -1096.19,528.55 -1280.79,1084.72 -36.88,111.11 -77.35,258.75 -77.35,403.35z"/>
   <path class="fil0" d="M2340.21 3644.46l-265.64 0c-63.58,0 -56.64,-11.37 -113.85,-12.65l299.21 181.48c104.83,50.48 217.54,85.49 331.58,123.81 382.66,128.59 779.43,141.45 1189.86,111.23 47.61,-3.51 199.11,-35.16 225.1,-30.14 15.71,3.03 134,82.72 162.44,99.85 236.5,142.47 711,348.66 1004.86,348.66 70.12,0 170.87,-75.44 49.05,-226.15 -17.39,-21.51 -18.23,-26.3 -39.4,-49.15 -225.27,-243.04 -183.19,-190.11 -338.54,-483.7 759.64,-401.95 1153.96,-1332.31 552.66,-2070.63 -172.05,-211.26 -355.86,-366.37 -603.26,-497.27 20.57,88.29 39.88,158.12 56.45,259.79 9.94,60.98 24.21,234.5 16.03,293.31 -51.41,369.55 -84.48,598.87 -339.82,937.88 -490.67,651.44 -1366.39,1013.68 -2186.72,1013.68z"/>
  </g>
 </g>
</svg>
