<?xml version="1.0" encoding="UTF-8"?>
<!DOCTYPE svg PUBLIC "-//W3C//DTD SVG 1.1//EN" "http://www.w3.org/Graphics/SVG/1.1/DTD/svg11.dtd">
<!-- Creator: CorelDRAW 2018 -->
<svg xmlns="http://www.w3.org/2000/svg" xml:space="preserve" version="1.1" style="shape-rendering:geometricPrecision; text-rendering:geometricPrecision; image-rendering:optimizeQuality; fill-rule:evenodd; clip-rule:evenodd"
viewBox="0 0 17.16 21.03"
 xmlns:xlink="http://www.w3.org/1999/xlink">
 <defs>
  <style type="text/css">
   <![CDATA[
    .fil0 {fill:#264796}
   ]]>
  </style>
 </defs>
 <g id="подменю_x0020_2_x0020_значок_x0020_идея">
  <metadata id="CorelCorpID_0Corel-Layer"/>
  <g id="_1093742008">
   <path class="fil0" d="M10.32 15.96l-3.63 0c-0.13,0 -0.2,-0.01 -0.3,-0.02 -0.23,-0.02 -0.24,0.05 -0.38,-0.59 -0.08,-0.36 -0.14,-0.71 -0.21,-1.08 -0.08,-0.37 -0.12,-0.72 -0.25,-1.04 -0.36,-0.89 -1.04,-1.32 -1.55,-2.35 -0.3,-0.59 -0.54,-1.37 -0.54,-2.05 0,-0.8 0.02,-1.26 0.3,-2.02 0.41,-1.13 1.1,-1.91 2.06,-2.55 0.69,-0.46 1.8,-0.79 2.62,-0.79 1.26,0 2.53,0.38 3.42,1.15 0.21,0.19 0.49,0.42 0.66,0.65 0.59,0.77 0.85,1.22 1.09,2.19 0.1,0.4 0.15,1.39 0.07,1.88 -0.03,0.23 -0.07,0.35 -0.12,0.54 -0.18,0.66 -0.5,1.25 -0.88,1.79 -0.18,0.26 -0.39,0.49 -0.59,0.74 -0.82,1.04 -0.64,1.93 -1.03,3.28 -0.02,0.09 -0.06,0.19 -0.12,0.22 -0.06,0.03 -0.5,0.04 -0.62,0.04zm-7.34 -7.4c0,0.79 0.24,1.72 0.49,2.25 0.08,0.16 0.13,0.31 0.22,0.46 0.48,0.8 0.45,0.72 1.01,1.41 0.15,0.19 0.3,0.42 0.38,0.65 0.27,0.77 0.32,1.58 0.51,2.26 0.07,0.23 0.15,0.53 0.35,0.68 0.04,0.03 0.19,0.14 0.23,0.14 0.67,0 2.41,0.03 2.88,-0.02 0.2,-0.02 1.05,-0 1.37,-0 0.18,0 0.31,-0.02 0.45,-0.02 0.34,-0.01 0.43,-0.14 0.54,-0.38 0.26,-0.51 0.39,-1.97 0.62,-2.59 0.04,-0.1 0.09,-0.24 0.15,-0.33 0.08,-0.13 0.18,-0.29 0.28,-0.41 1,-1.11 1.71,-2.53 1.71,-4.06 0,-1.39 -0.5,-2.55 -1.35,-3.6 -0.08,-0.1 -0.24,-0.28 -0.34,-0.36 -0.07,-0.05 -0.11,-0.11 -0.17,-0.17 -0.12,-0.12 -0.25,-0.22 -0.39,-0.32 -2.11,-1.58 -4.93,-1.49 -6.95,0.22 -0.08,0.07 -0.11,0.09 -0.18,0.16 -0.63,0.64 -1.06,1.16 -1.4,2.03 -0.03,0.08 -0.06,0.16 -0.09,0.25 -0.11,0.3 -0.23,0.78 -0.27,1.11 -0.02,0.19 -0.05,0.44 -0.05,0.64z"/>
   <path class="fil0" d="M8.52 11.22c-0.12,-0.03 -0.38,-0.38 -0.55,-0.52 -0.27,-0.22 -1.46,-1.58 -1.7,-1.58 -0.16,0 -0.19,0.1 -0.19,0.24 0,0.15 1.78,1.88 2.13,2.23 0.5,0.49 0.45,0.22 0.82,-0.39 0.14,-0.23 0.24,-0.48 0.38,-0.71 0.07,-0.12 0.12,-0.23 0.18,-0.35 0.07,-0.14 0.13,-0.23 0.19,-0.36l0.38 -0.74c0.04,-0.07 0.06,-0.09 0.09,-0.16l0.66 -1.29c0.15,-0.3 0.44,-0.81 0.56,-1.1 0.08,-0.19 -0.07,-0.28 -0.26,-0.28 -0.08,0 -0.17,0.2 -0.2,0.27 -0.03,0.07 -0.05,0.09 -0.09,0.15l-0.92 1.74c-0.05,0.11 -0.1,0.22 -0.16,0.33 -0.28,0.5 -0.63,1.2 -0.9,1.74 -0.04,0.07 -0.06,0.1 -0.09,0.16l-0.32 0.64z"/>
   <path class="fil0" d="M6.07 17.21c0,0.28 0.04,0.28 0.36,0.28 0.2,0 0.42,0.02 0.61,-0.01l1.52 -0.05c0.21,-0 0.63,-0.05 0.9,-0.04l0.62 -0.02c0.29,-0.03 0.63,-0.03 0.88,-0.07 0.25,-0.04 0.23,-0.46 -0.27,-0.42l-0.66 0.04c-0.25,0.01 -0.45,0.02 -0.69,0.02l-1.35 0.07c-0.33,-0 -1,0.05 -1.35,0.06 -0.08,0 -0.22,0.02 -0.32,0.03 -0.09,0.01 -0.24,0.01 -0.24,0.12z"/>
   <path class="fil0" d="M10.88 17.89c-0.48,0 -0.9,0.03 -1.37,0.04l-0.67 0.04c-0.11,0.01 -0.23,-0 -0.34,0l-0.66 0.04c-0.12,0 -0.24,-0.01 -0.36,0.01 -0.25,0.03 -1.14,0.04 -1.32,0.1 -0.06,0.02 -0.06,0.03 -0.08,0.09 -0.02,0.06 -0.02,0.09 0,0.15 0.05,0.13 0.08,0.12 0.23,0.14 0.18,0.02 1.46,-0.02 1.68,-0.04 0.11,-0.01 0.25,0 0.36,-0l0.67 -0.04c0.11,-0.01 0.23,0 0.34,-0 0.27,-0.01 1.54,-0.08 1.66,-0.13 0.18,-0.08 0.09,-0.39 -0.13,-0.39z"/>
   <path class="fil0" d="M6.26 19.31c0,0.23 0.19,0.19 0.36,0.19l1.42 -0.02c0.11,-0 0.15,-0.02 0.28,-0.02l1.38 -0.06c0.1,-0.01 0.2,0 0.29,-0.01 0.47,-0.05 0.9,0.03 0.9,-0.25 0,-0.29 -0.33,-0.22 -0.71,-0.22 -0.14,0 -0.18,0.02 -0.32,0.02 -0.31,-0 -0.68,0.04 -0.94,0.04 -0.11,0 -0.24,-0.01 -0.34,0 -0.17,0.01 -0.44,0.02 -0.61,0.04 -0.1,0.01 -0.22,-0 -0.32,0l-0.94 0.06c-0.23,0.02 -0.45,-0.04 -0.45,0.22z"/>
   <path class="fil0" d="M8.66 21.03c0.54,-0.01 0.78,-0.08 1.38,-0.68 0.06,-0.06 0.25,-0.28 0.25,-0.37 0,-0.04 -0.15,-0.35 -0.41,-0.09l-0.44 0.4c-0.34,0.31 -0.53,0.34 -0.97,0.34 -0.5,0 -0.75,-0.36 -1.01,-0.57 -0.17,-0.14 -0.38,-0.43 -0.56,-0.16 -0.16,0.24 0.5,0.73 0.68,0.86 0.06,0.05 0.12,0.09 0.19,0.13 0.12,0.07 0.31,0.16 0.49,0.16l0.4 0z"/>
   <path class="fil0" d="M0.04 8.39c-0.02,0.08 -0.08,0.16 -0.01,0.29 0.07,0.15 0.63,0.1 0.78,0.1 0.29,-0 0.35,0.05 0.67,0.01 0.23,-0.03 0.71,0.04 0.84,-0.06 0.1,-0.08 0.12,-0.31 -0.06,-0.35 -0.22,-0.05 -1.94,-0.05 -2.23,0.02z"/>
   <path class="fil0" d="M2.44 14.46c0,0.09 0.12,0.23 0.2,0.24 0.11,0.02 0.67,-0.6 0.74,-0.66 0.16,-0.16 0.3,-0.3 0.46,-0.46 0.05,-0.05 0.45,-0.47 0.45,-0.5 0,-0.11 -0.14,-0.24 -0.24,-0.24 -0.11,0 -1.15,1.03 -1.24,1.16 -0.07,0.09 -0.36,0.35 -0.36,0.45z"/>
   <path class="fil0" d="M12.87 4.03c0,0.1 0.15,0.22 0.24,0.24 0.08,-0.01 1.23,-1.16 1.34,-1.28 0.04,-0.05 0.05,-0.07 0.1,-0.12 0.11,-0.11 0.18,-0.15 0.18,-0.27 0,-0.05 -0.17,-0.28 -0.35,-0.11 -0.05,0.04 -0.06,0.05 -0.1,0.09 -0.08,0.06 -0.13,0.14 -0.21,0.2 -0.1,0.08 -1.18,1.13 -1.18,1.26z"/>
   <path class="fil0" d="M8.37 0.34l0 1.89c0,0.03 0.12,0.24 0.35,0.09 0.04,-0.03 0.08,-0.04 0.08,-0.09l0 -1.87c0,-0.29 -0.05,-0.35 -0.15,-0.36l-0.15 0c-0.12,0 -0.13,0.21 -0.13,0.34z"/>
   <path class="fil0" d="M2.44 2.62c0,0.11 0.28,0.37 0.36,0.46l1.02 1.02c0.1,0.08 0.12,0.12 0.23,0.18 0,0 0.37,-0.12 0.17,-0.36 -0.04,-0.04 -0.05,-0.06 -0.09,-0.11l-0.79 -0.82c-0.13,-0.13 -0.58,-0.56 -0.68,-0.56 -0.1,0 -0.21,0.1 -0.21,0.19z"/>
   <path class="fil0" d="M14.76 8.54c0,0.13 0.04,0.19 0.19,0.22l1.72 0.01c0.21,0 0.49,0.04 0.49,-0.21 0,-0.06 -0.03,-0.11 -0.04,-0.17 -0.29,-0.07 -1.95,-0.06 -2.21,-0.02 -0.09,0.02 -0.15,0.06 -0.15,0.17z"/>
   <path class="fil0" d="M14.72 14.46c0,-0.07 -0.11,-0.19 -0.17,-0.24l-1.42 -1.37c-0.12,0 -0.28,0.13 -0.25,0.25 0.03,0.13 1.51,1.57 1.58,1.6 0.09,0.04 0.26,-0.12 0.26,-0.24z"/>
  </g>
 </g>
</svg>
