<?xml version="1.0" encoding="UTF-8"?>
<!DOCTYPE svg PUBLIC "-//W3C//DTD SVG 1.1//EN" "http://www.w3.org/Graphics/SVG/1.1/DTD/svg11.dtd">
<!-- Creator: CorelDRAW 2018 -->
<svg xmlns="http://www.w3.org/2000/svg" xml:space="preserve" version="1.1" style="shape-rendering:geometricPrecision; text-rendering:geometricPrecision; image-rendering:optimizeQuality; fill-rule:evenodd; clip-rule:evenodd"
viewBox="0 0 38.23 37.98"
 xmlns:xlink="http://www.w3.org/1999/xlink">
 <defs>
  <style type="text/css">
   <![CDATA[
    .fil0 {fill:#264796}
   ]]>
  </style>
 </defs>
 <g id="подменю_x0020_2_x0020_значок_x0020_контакты">
  <metadata id="CorelCorpID_0Corel-Layer"/>
  <g id="_2072029432">
   <path class="fil0" d="M2.26 10.09c0,-0.53 0.12,-1.08 0.26,-1.5 0.15,-0.45 0.29,-0.85 0.48,-1.23 0.79,-1.6 2.24,-3.75 3.8,-4.78 0.63,-0.42 0.5,-0.32 1.04,0.1 0.37,0.29 0.75,0.73 1.06,1.08 0.82,0.93 1.71,2.14 2.38,3.2 0.44,0.71 0.91,1.4 1.28,2.15 0.29,0.59 0.62,1.16 0.78,1.83 -0.55,0.37 -0.57,0.4 -1.24,0.72l-1.98 0.95 -0.56 0.42c-0.53,0.49 -0.67,0.92 -0.67,1.67 0,1.27 1.79,3.93 2.41,4.76l1.35 1.77c0.44,0.56 0.97,1.19 1.47,1.69 0.09,0.09 0.16,0.14 0.23,0.24 0.09,0.11 0.11,0.15 0.22,0.25 0.1,0.1 0.13,0.11 0.23,0.2l0.45 0.44c0.11,0.09 0.15,0.11 0.25,0.22 0.64,0.66 2.66,2.2 3.51,2.77l1.65 1.04c1.24,0.71 3.11,1.64 4.24,0.23l0.32 -0.42c0.5,-0.75 1.21,-2.91 1.76,-3.28 0.27,0.06 0.44,0.14 0.67,0.23 0.63,0.25 1.2,0.6 1.8,0.93 0.87,0.47 1.68,1.05 2.49,1.61l0.79 0.58c0.19,0.14 0.32,0.25 0.51,0.39 0.1,0.08 0.17,0.13 0.26,0.21 0.75,0.6 1.53,1.27 2.06,2.07 -0.14,0.6 -0.94,1.35 -1.36,1.77l-0.41 0.37c-1.22,1.19 -4.09,2.94 -5.76,2.94 -1.14,0 -1.96,-0.26 -2.91,-0.64 -0.4,-0.16 -0.74,-0.3 -1.12,-0.48 -0.19,-0.09 -0.36,-0.16 -0.53,-0.25 -2.9,-1.45 -5.56,-3.44 -8.02,-5.51l-1.06 -0.93c-1.05,-0.93 -2.04,-1.93 -3.04,-2.93l-2.07 -2.3c-0.09,-0.1 -0.11,-0.14 -0.2,-0.23 -0.74,-0.85 -1.44,-1.77 -2.12,-2.68 -0.23,-0.31 -0.43,-0.62 -0.67,-0.93 -0.57,-0.76 -1.07,-1.57 -1.56,-2.38 -0.11,-0.18 -0.21,-0.34 -0.3,-0.51 -0.19,-0.34 -0.39,-0.66 -0.57,-1.03 -0.18,-0.36 -0.38,-0.71 -0.53,-1.07 -0.48,-1.13 -1.08,-2.36 -1.08,-3.72zm-2.26 -0.35c0,1.42 0.16,2.19 0.63,3.47 1.17,3.21 3.11,6.01 5.13,8.71l2.75 3.3c0.44,0.55 1.63,1.74 2.13,2.24 0.3,0.3 0.56,0.56 0.86,0.86 0.49,0.5 1.26,1.16 1.8,1.64l1.65 1.39c0.72,0.57 1.44,1.17 2.2,1.7 0.19,0.13 0.31,0.23 0.5,0.36 1.03,0.71 2.07,1.4 3.15,2.04l1.1 0.61c0.99,0.5 1.96,0.99 3.02,1.34 0.21,0.07 0.42,0.15 0.65,0.21 0.73,0.21 1.43,0.37 2.25,0.37 2.74,0 5.35,-1.79 7.16,-3.22 0.6,-0.47 1.16,-1.04 1.66,-1.61 0.59,-0.66 1.24,-1.64 1.24,-2.58 0,-2.14 -4.85,-5.28 -6.33,-6.23l-1.15 -0.68c-2.11,-1.15 -4.36,-2.48 -5.83,0.36 -0.06,0.12 -0.12,0.19 -0.18,0.32 -0.39,0.78 -0.67,1.69 -1.14,2.41 -0.29,-0.14 -0.54,-0.21 -1.03,-0.46 -0.66,-0.33 -1.3,-0.71 -1.89,-1.16l-3.18 -2.48c-0.08,-0.06 -0.12,-0.12 -0.2,-0.19 -0.09,-0.08 -0.1,-0.09 -0.19,-0.16 -0.28,-0.22 -0.52,-0.5 -0.76,-0.76l-1.07 -1.19c-0.84,-0.9 -3.64,-4.66 -3.74,-5.74 0.23,-0.06 0.41,-0.24 0.64,-0.33l1.37 -0.61c0.64,-0.32 1.35,-0.64 1.8,-1.2 0.09,-0.11 0.12,-0.13 0.21,-0.26 0.07,-0.11 0.13,-0.2 0.19,-0.32 0.12,-0.27 0.19,-0.67 0.19,-1.01 0,-1.35 -1.67,-4.05 -2.47,-5.25 -0.56,-0.84 -1.14,-1.66 -1.76,-2.45 -0.19,-0.24 -0.35,-0.43 -0.54,-0.67 -0.18,-0.23 -0.41,-0.43 -0.57,-0.64 -0.28,-0.37 -0.84,-0.85 -1.22,-1.16 -1.59,-1.3 -2.87,-0.59 -4.21,0.49 -0.11,0.09 -0.16,0.17 -0.28,0.26 -0.21,0.16 -0.35,0.33 -0.54,0.51 -0.54,0.53 -1.04,1.15 -1.47,1.76 -0.15,0.21 -0.29,0.4 -0.44,0.62 -0.15,0.22 -0.27,0.42 -0.4,0.65 -0.8,1.33 -1.69,3.14 -1.69,4.74z"/>
   <path class="fil0" d="M18.18 2.4c0,0.54 0.36,0.9 0.78,0.9 0.22,0 1.05,-0.16 1.45,-0.19 3.65,-0.27 6.19,0.32 9.11,1.88 1.11,0.59 1.89,1.26 2.81,2.03 0.73,0.61 1.86,2.03 2.37,2.86l0.49 0.84c0.41,0.78 0.73,1.55 1.01,2.46 0.13,0.42 0.28,0.96 0.35,1.4 0.08,0.48 0.3,0.89 0.86,0.89 0.49,0 0.82,-0.35 0.82,-0.9 0,-0.25 -0.08,-0.53 -0.13,-0.77 -0.22,-1.04 -0.5,-1.81 -0.89,-2.77 -0.21,-0.52 -0.68,-1.38 -0.94,-1.83 -0.76,-1.28 -1.41,-2.04 -2.44,-3.06 -0.66,-0.66 -1.23,-1.15 -2.01,-1.69 -0.19,-0.13 -0.34,-0.25 -0.53,-0.36 -1.18,-0.7 -1.62,-1.01 -3.07,-1.57 -2.76,-1.08 -5.44,-1.36 -8.52,-1.01 -0.56,0.06 -1.52,0.1 -1.52,0.9z"/>
   <path class="fil0" d="M20.99 8.53c1.25,0 1.96,0.01 3.18,0.4 2.06,0.67 3.51,1.79 4.69,3.54 0.41,0.61 0.83,1.59 1.02,2.37 0.05,0.19 0.07,0.38 0.12,0.58 0.09,0.35 0.3,0.59 0.72,0.65 0.38,0.06 0.75,-0.19 0.86,-0.46 0.15,-0.35 0.03,-0.78 -0.06,-1.13 -0.17,-0.72 -0.44,-1.44 -0.74,-2.03 -1.93,-3.86 -6.25,-6.1 -10.69,-5.55 -0.38,0.05 -0.82,0.08 -1.06,0.31 -0.59,0.56 -0.15,1.56 0.67,1.45 0.44,-0.06 0.79,-0.14 1.27,-0.14z"/>
   <path class="fil0" d="M19.54 14.03c0.44,0 0.65,-0.08 1.05,-0.08 1.99,0 3.61,1.13 4.28,2.86 0.05,0.14 0.1,0.3 0.14,0.45 0.07,0.3 0.16,0.94 0.85,0.94 0.52,0 0.86,-0.42 0.86,-0.7 0,-0.53 -0.09,-0.82 -0.27,-1.29 -0.14,-0.38 -0.26,-0.6 -0.44,-0.93 -0.27,-0.5 -0.83,-1.15 -1.26,-1.51 -1.32,-1.11 -3.26,-1.75 -5.17,-1.41 -1.27,0.22 -0.87,1.67 -0.04,1.67z"/>
  </g>
 </g>
</svg>
