<?xml version="1.0" encoding="UTF-8"?>
<!DOCTYPE svg PUBLIC "-//W3C//DTD SVG 1.1//EN" "http://www.w3.org/Graphics/SVG/1.1/DTD/svg11.dtd">
<!-- Creator: CorelDRAW 2019 (64-Bit) -->
<svg xmlns="http://www.w3.org/2000/svg" xml:space="preserve" version="1.1" style="shape-rendering:geometricPrecision; text-rendering:geometricPrecision; image-rendering:optimizeQuality; fill-rule:evenodd; clip-rule:evenodd"
viewBox="0 0 1473.55 1473.04"
 xmlns:xlink="http://www.w3.org/1999/xlink">
 <defs>
  <style type="text/css">
   <![CDATA[
    .fil0 {fill:#264796}
   ]]>
  </style>
 </defs>
 <g id="подменю_x0020_2_x0020_значок_x0020_контакты">
  <metadata id="CorelCorpID_0Corel-Layer"/>
  <g id="_2389615364928">
   <path class="fil0" d="M620.44 324.2l0 102.79c0,7.89 10.52,22.75 18.52,27.25 1.92,1.08 4.03,2.12 6.27,3.08 13.21,5.57 55.48,3.31 73.32,3.31l0 195.28 -346.67 0c-20.84,0 -44.47,16.31 -52.75,36.95 -1.37,3.41 -2.32,6.67 -3.24,9.85 -3.45,11.72 1.34,176.27 -1.83,179.44 -3.75,3.75 -55.64,-3.37 -73.42,4.12 -11.11,4.67 -23.86,19.36 -23.86,28.47l0 106.51c0,3.26 4.3,11.18 5.95,13.66 9.45,14.11 21.76,18.12 40.76,18.12l142.97 0c19.95,0 35.36,-5.32 43.91,-24.31 2.7,-5.99 3.74,-10.93 3.74,-19.61l0 -82.23c0,-29.14 -18.86,-43.98 -46.72,-43.92l-45.87 0.08c-3.49,0.03 -6.46,0.73 -6.46,-2.88l0 -157.91c0,-14.8 5.33,-25.23 21.49,-25.23l339.19 0c2.15,0 2.81,0.65 2.81,2.8l0 183.14 -57.01 0c-10.69,0 -21.78,4.61 -27.34,10.03 -5.2,5.06 -13.77,15.67 -13.77,23.61l0 102.79c0,6.77 8,19.03 14.8,24.45 8.05,6.41 16.78,9.19 30.99,9.19l145.76 0c19.06,0 31.72,-5.85 40.56,-20.18 2.21,-3.59 5.23,-10.14 5.23,-15.33l0 -99.05c0,-4.41 -2.8,-11.02 -4.52,-14.17 -2.47,-4.52 -5.27,-7.34 -8.79,-10.84 -6.65,-6.63 -18.21,-10.5 -27.81,-10.5l-57 0 0 -183.14c0,-2.15 0.65,-2.8 2.8,-2.8l339.19 0c15.18,0 20.65,8.49 20.56,22.42l-0.01 153.26c0,12.35 3.66,10.34 -10.27,10.27 -14.16,-0.08 -51.4,-1.76 -62.33,3.08 -17.49,7.75 -25.51,21.54 -25.51,40.84l0 82.23c0,22.02 9.43,34.03 26.93,41.29 5.2,2.15 13.08,2.63 20.73,2.63 20.18,0 150.97,1.45 161.02,-1.58 14.1,-4.24 28.66,-18.86 28.66,-32.06l0 -102.79c0,-4.87 -2.81,-10.09 -4.59,-13.17 -7.06,-12.24 -20.75,-20.47 -34.66,-20.47l-58.87 0 0 -175.66c0,-3.17 -4.99,-16.63 -7.09,-20.01 -8.31,-13.4 -13.97,-18.91 -28.24,-25.95 -2.62,-1.3 -6.29,-2.77 -9.63,-3.45 -4.2,-0.84 -7.76,-1.98 -12.04,-1.98l-346.66 0 0 -195.28c17.82,0 60.1,2.26 73.31,-3.31 4.83,-2.05 7.95,-3.65 11.5,-7.19 5.75,-5.73 13.31,-16.07 13.31,-24.08l0 -99.98c0,-17.35 -18.65,-35.51 -43.92,-35.51l-149.5 0c-13.35,0 -21.59,3.19 -29.12,9.19 -5.6,4.44 -9.67,9.73 -12.42,16.55 -0.79,1.95 -2.38,6.16 -2.38,7.9z"/>
   <path class="fil0" d="M46.72 756.82l-0.03 -52.35c0.14,-4.63 0.88,-4.67 0.98,-9.29 1.45,-59.24 19.31,-139.87 40.01,-195.46 3.91,-10.47 7.93,-20.88 12.26,-30.71 12.57,-28.44 16.84,-37.29 30.87,-64.45l37 -60.18c3.12,-4.71 5.73,-8.02 9.06,-12.44 6.31,-8.41 11.51,-15.75 18.12,-23.92l34.64 -40.1c2.21,-2.39 2.71,-3.68 5.11,-6.11 9.35,-9.45 21.74,-23.45 32.1,-31.44 6.35,-4.91 22.4,-20.59 34.43,-30.04 8.41,-6.6 15.57,-12.44 24.15,-18.84 4.41,-3.28 7.98,-5.71 12.43,-9.06 20.62,-15.56 42.67,-28.23 65.52,-41.01 36.12,-20.19 72.39,-34.43 110.8,-48.97 3.04,-1.15 5.31,-1.64 8.51,-2.71 53.69,-17.9 86.48,-22.2 142.06,-29.86l29.53 -2.24c5.06,-0.04 5.5,-0.85 10.22,-0.99 79.16,-2.37 150.6,5.65 226.69,27.52l40.19 13.08c2.91,1.12 5.55,2.3 8,3.21 25.59,9.45 49.42,20.71 73.68,32.85 18.7,9.35 37.11,19.95 54.58,31.39 27.56,18.03 54.56,37.18 79.26,59.02 2.3,2.02 3.18,3.44 5.78,5.43 15.38,11.88 29.44,27.9 43.3,41.74 1.92,1.92 3.27,3.17 5.15,5.13 2.34,2.43 2.76,3.68 5.1,6.11 3.85,3.99 6.55,7.18 10.31,11.18 10.32,11.03 19.89,23.45 28.93,35.55 18.52,24.82 35.28,50.39 50.76,77.24 5.14,8.91 10.41,18.17 15.22,27.77 2.57,5.13 4.27,9.52 6.84,14.64 28.46,56.59 44.75,116.23 57.24,178.23 4.66,23.14 7.84,53.59 8.46,77.51l0.95 20.52c-0.01,8.26 0.95,12.65 0.94,20.56l-2.86 60.67c-4.9,65 -20.61,130.94 -44.66,190.82 -4.24,10.52 -7.57,20.47 -12.6,30.38 -5.93,11.65 -10.61,24 -16.82,35.51l-7.71 13.79c-5.39,9.05 -9.81,18.61 -15.51,27.46 -18.8,29.21 -36.04,53.97 -58.05,81.17 -20.51,25.36 -43.83,48.49 -67.7,70.6l-11.2 10.29c-2.46,2.51 -3.56,3 -6.06,5.17 -4.05,3.52 -7.54,6.35 -11.72,9.77l-24.13 18.84c-4.63,3.19 -8.03,5.9 -12.38,9.11 -8.03,5.93 -16.77,11.22 -25.18,16.87l-54.39 31.58c-78.17,39.08 -138.69,59.35 -227.94,72 -6.23,0.89 -12.43,1.27 -19.27,2.23 -11.93,1.65 -69.95,4.97 -80.08,3.59 -11.58,-1.59 -29.31,0.22 -41.54,-1.45 -18.3,-2.48 -36.43,-3.37 -57.79,-6.68 -13.16,-2.02 -24.02,-4.1 -36.45,-6.54 -11.6,-2.26 -22.76,-5.18 -33.84,-8.21 -10.56,-2.89 -22.43,-6.09 -33.26,-9.72 -3.17,-1.07 -4.61,-1.44 -7.82,-2.44 -18.33,-5.76 -37.1,-13.5 -54.67,-21.02 -38.98,-16.7 -75.69,-37.19 -110.56,-60.45 -4.63,-3.08 -8.42,-5.39 -12.8,-8.69 -21.81,-16.44 -45.81,-33.5 -65.38,-52.35 -13.82,-13.3 -30.98,-27.88 -42.6,-42.43l-20.41 -22.58c-27.26,-32.39 -35.98,-46.22 -58.97,-80.25 -18.74,-27.76 -37.99,-67.4 -51.03,-98.46 -25.66,-61.08 -36.44,-103.59 -46.86,-168.05 -4.1,-25.43 -6.95,-53.13 -6.95,-79.02zm-46.72 -26.77l0 -29.29c0,-27.52 3.88,-54.43 7.63,-81.15 7.89,-56.32 27.58,-119.64 49.76,-172.61 8.73,-20.85 18.84,-39.78 28.87,-59.91 13.42,-26.93 33.16,-57.61 50.95,-81.73 13.87,-18.8 28.3,-38.61 44.29,-55.7 15.95,-17.06 32.09,-34.62 49.03,-50.93l23.75 -21.11c46.2,-37.29 64.34,-51.29 116.48,-82.55l29.15 -15.71c4.99,-2.47 9.97,-4.97 14.96,-7.47 29.52,-14.76 48.82,-20.83 78.09,-32.16 21.32,-8.26 44.69,-14.77 68.41,-20.36 27.14,-6.39 64.67,-14.8 94.57,-16.62 6.08,-0.38 13.77,-1.59 19.62,-1.87l100.88 -0.9c21.04,0.18 41.41,3.31 62.65,5.57 44.76,4.78 105.41,21.13 145.89,36.31 6.06,2.26 11.16,3.7 17.23,6.13 44.36,17.81 71.35,31.74 114.43,56.57 16.27,9.38 32.34,20.08 47.62,30.88 12.43,8.79 27.54,19.91 39,30.14 2.19,1.95 3.83,3.21 6.15,5.06l18.65 15.93c19.13,18.44 38.36,37.02 56.51,56.54l55.36 69.85c14.3,20.15 27.07,41.65 39.78,63 14.16,23.79 35.13,68.5 43.73,92.7 23.61,66.44 35.31,110.99 45.04,182.02 2.46,17.94 5.05,66.95 5.08,85.57l-0.92 33.66c0,5.14 -0.75,6.02 -0.97,10.24 -1.81,35.03 -6.21,67.85 -12.84,101.16 -17.23,86.62 -50.2,170.23 -97.24,244.75 -11.06,17.53 -32.81,50.61 -46.68,66.37 -8.84,10.05 -17.15,21.17 -26.16,30.85l-15.87 17.76c-12.21,12.19 -33.88,34.89 -46.3,45.28l-24.82 20.95c-12.37,10.08 -24.87,20.1 -38.07,29.22 -19.8,13.68 -49,33.32 -70.45,44.48l-14.64 7.77c-10.33,5.11 -19.53,9.99 -29.9,14.96 -54.56,26.18 -112.51,44.03 -172.01,55.98 -11.69,2.34 -25.62,4.96 -38.47,6.37 -13.04,1.45 -27.51,3.47 -41.23,4.54 -51.92,4.07 -110.53,3.14 -161.88,-4.33 -26.84,-3.91 -50.22,-8.4 -74.48,-14.29 -29.55,-7.19 -73.7,-20.61 -101.17,-32.46 -20.83,-8.99 -40.66,-17.75 -60.8,-27.98l-14.62 -7.8c-37.58,-18.68 -79.78,-49.54 -112.94,-75.8 -2.25,-1.78 -3.49,-2.98 -5.6,-4.68 -22.58,-18.28 -42.85,-38.6 -63.45,-58.96l-26.15 -28.98c-10.78,-11.58 -20.38,-24.76 -29.87,-37.4l-18.28 -25.64c-3.12,-4.16 -6.55,-8.98 -9.13,-13.3l-16.82 -27.09c-2.67,-4.47 -5.95,-9.4 -8.37,-14.06 -12.72,-24.5 -25.97,-48.97 -36.55,-74.63 -2.18,-5.24 -4.39,-10.03 -6.55,-15.88l-11.87 -32.05c-2.09,-5.55 -3.83,-11.44 -5.62,-16.79 -3.73,-11.06 -6.69,-22.44 -9.66,-34.28 -21.51,-86.08 -23.08,-118.5 -23.17,-194.21z"/>
  </g>
 </g>
</svg>
