<?xml version="1.0" encoding="UTF-8"?>
<!DOCTYPE svg PUBLIC "-//W3C//DTD SVG 1.1//EN" "http://www.w3.org/Graphics/SVG/1.1/DTD/svg11.dtd">
<!-- Creator: CorelDRAW 2018 -->
<svg xmlns="http://www.w3.org/2000/svg" xml:space="preserve" version="1.1" style="shape-rendering:geometricPrecision; text-rendering:geometricPrecision; image-rendering:optimizeQuality; fill-rule:evenodd; clip-rule:evenodd"
viewBox="0 0 27.23 29.71"
 xmlns:xlink="http://www.w3.org/1999/xlink">
 <defs>
  <style type="text/css">
   <![CDATA[
    .fil0 {fill:#264796}
   ]]>
  </style>
 </defs>
 <g id="подменю_x0020_2_x0020_значок_x0020_наука">
  <metadata id="CorelCorpID_0Corel-Layer"/>
  <g id="_-2094199112">
   <path class="fil0" d="M9.04 24.32c0.1,-0.05 0.45,-0.1 0.58,-0.12 1.12,-0.19 2.3,-0.5 3.4,-0.81 0.86,-0.24 0.4,-0.21 1.65,0.14 0.58,0.16 2.95,0.75 3.52,0.76 -0,0.18 -0.24,0.61 -0.32,0.77 -0.13,0.25 -0.24,0.51 -0.38,0.74 -0.07,0.12 -0.11,0.23 -0.19,0.36 -0.25,0.42 -0.34,0.61 -0.68,1.02 -0.55,0.68 -1.74,1.78 -2.68,1.78 -1.01,0 -0.99,0.04 -1.87,-0.43 -0.89,-0.48 -1.86,-1.77 -2.32,-2.68 -0.13,-0.26 -0.69,-1.3 -0.72,-1.53zm4.44 -24.32l0.27 0c0.35,0.02 0.69,0.14 1,0.35 0.68,0.46 0.7,1.36 0.75,1.5 0.07,0.19 0.32,0.31 0.48,0.43 0.61,0.45 1.29,1.25 1.7,1.88 0.12,0.18 0.21,0.35 0.32,0.56l0.61 1.18c0.05,0.11 0.1,0.19 0.15,0.31 0.24,0.58 0.22,0.76 0.6,0.7 0.13,-0.02 0.31,-0.02 0.42,-0.04 0.58,-0.08 1.13,-0.07 1.72,-0.07 2,0 4.13,0.62 5.14,2.14 0.46,0.69 0.59,1.34 0.59,2.2 0,0.96 -0.46,2.14 -0.95,2.94 -0.48,0.79 -1.03,1.55 -1.63,2.25 0.24,0.44 0.5,0.75 0.75,1.28 0.2,0.43 0.42,0.96 0.54,1.46 0.14,0.55 0.07,0.89 0.43,1.09 0.87,0.5 1.12,1.84 0.51,2.65 -0.2,0.27 -0.43,0.45 -0.74,0.6 -0.55,0.27 -0.93,0.17 -1.48,0.03 -0.25,-0.07 -0.42,0.04 -0.62,0.14 -0.9,0.45 -1.59,0.6 -2.62,0.74 -1.17,0.16 -1.43,0.08 -2.44,0.08 -0.02,0.28 -0.46,1.12 -0.6,1.4 -0.42,0.85 -0.96,1.62 -1.57,2.35 -0.29,0.35 -0.67,0.67 -1.05,0.92 -0.8,0.54 -1.4,0.66 -2.43,0.66 -0.7,0 -1.53,-0.4 -1.94,-0.7 -1.16,-0.82 -1.96,-2.05 -2.59,-3.29 -0.22,-0.44 -0.39,-0.9 -0.6,-1.34 -0.33,0 -0.55,0.03 -0.88,0.03 -0.85,0 -2.21,-0.13 -2.96,-0.37 -0.44,-0.14 -0.8,-0.3 -1.19,-0.47 -0.19,-0.09 -0.35,-0.2 -0.6,-0.15 -0.31,0.07 -0.47,0.15 -0.86,0.15 -0.9,0 -2.21,-1.1 -1.54,-2.66 0.28,-0.65 0.84,-0.72 0.94,-1.06 0.04,-0.14 0.04,-0.28 0.08,-0.44 0.19,-0.9 0.54,-1.72 0.99,-2.49 0.13,-0.21 0.27,-0.38 0.38,-0.59 -0.3,-0.35 -0.58,-0.7 -0.86,-1.08 -0.38,-0.51 -0.75,-1.07 -1.03,-1.64 -0.03,-0.06 -0.04,-0.11 -0.07,-0.17 -0.33,-0.69 -0.62,-1.45 -0.62,-2.29 0,-0.46 0.05,-1.02 0.19,-1.41 0.88,-2.33 3.46,-2.92 5.93,-2.92 0.59,0 1.11,0.04 1.7,0.09 0.15,0.01 0.25,0.09 0.36,-0.04 0.05,-0.06 0.11,-0.22 0.15,-0.31 0.33,-0.83 0.87,-1.9 1.39,-2.64 0.35,-0.5 1.04,-1.25 1.52,-1.61 0.15,-0.11 0.4,-0.24 0.48,-0.4 0.06,-0.13 0.04,-0.23 0.07,-0.39 0.06,-0.31 0.22,-0.69 0.43,-0.9 0.35,-0.37 0.8,-0.57 1.27,-0.6zm-5.44 20.65c0.67,0.35 2.12,1.15 2.68,1.38 0.12,0.05 0.16,0.07 0.27,0.12l1.45 0.62 -0.84 0.22c-0.69,0.17 -2.1,0.5 -2.77,0.5 -0.1,0 -0.1,-0.1 -0.17,-0.29 -0.04,-0.12 -0.07,-0.23 -0.11,-0.35l-0.38 -1.44c-0.05,-0.25 -0.13,-0.51 -0.13,-0.78zm10.43 2.85c-1.17,0 -3.49,-0.71 -3.67,-0.73l1.69 -0.74c0.51,-0.26 1.12,-0.5 1.65,-0.81 0.17,-0.1 0.34,-0.19 0.53,-0.29 0.19,-0.1 0.35,-0.18 0.54,-0.28 0,0.33 -0.47,2.08 -0.61,2.51 -0.03,0.1 -0.1,0.24 -0.12,0.34zm5.34 -0.76c0,0.16 -0.69,0.41 -0.86,0.47 -0.33,0.13 -0.7,0.21 -1.1,0.27 -0.36,0.06 -0.87,0.11 -1.26,0.11 -0.25,-0 -0.42,0.03 -0.64,0.03l-0.67 0.03c0,-0.14 0.1,-0.41 0.14,-0.56 0.06,-0.2 0.11,-0.38 0.16,-0.57l0.52 -2.39c0.04,-0.12 0.08,-0.11 0.18,-0.18 0.07,-0.05 0.14,-0.1 0.21,-0.15 0.15,-0.1 0.28,-0.2 0.43,-0.3 0.58,-0.4 1.1,-0.83 1.65,-1.26 0.08,-0.06 0.12,-0.1 0.2,-0.16l0.58 -0.51c0.17,-0.14 0.68,-0.62 0.78,-0.68 0.03,0.12 0.11,0.2 0.17,0.31l0.52 0.97c0.15,0.31 0.46,1.13 0.46,1.54 0,0.32 -0.83,0.08 -1.47,1.05 -0.62,0.94 -0.02,1.74 -0.02,1.98zm-21.86 -3.03c0,-0.57 0.32,-1.19 0.55,-1.7 0.09,-0.21 0.47,-0.98 0.64,-1.09l1.15 1.01c0.8,0.64 1.78,1.49 2.66,2.01 0.26,0.15 0.17,0.02 0.26,0.47 0.19,0.94 0.42,2.04 0.69,2.95 0.03,0.1 0.06,0.18 0.07,0.29l-1.27 -0.06c-0.4,0 -0.88,-0.05 -1.26,-0.1 -0.38,-0.06 -0.77,-0.14 -1.08,-0.26 -0.12,-0.04 -0.91,-0.35 -0.91,-0.46 0,-0.3 0.59,-1.07 -0.01,-2 -0.64,-1 -1.48,-0.74 -1.48,-1.07zm5.64 -4.58c0,-0.25 -0.01,-0.5 0.02,-0.71 0.03,-0.24 -0.01,-0.5 0.01,-0.75 0.02,-0.19 0.05,-0.48 0.06,-0.67 0.01,-0.15 0.03,-0.21 0.03,-0.33 0.01,-0.35 -0.05,-0.21 0.53,-0.59l0.9 -0.58c0.78,-0.5 1.57,-0.91 2.4,-1.33 0.25,-0.13 1.91,-0.92 2.08,-0.91 0.22,0.01 1.78,0.76 2.07,0.9 1.34,0.67 2.52,1.38 3.75,2.19 0.11,0.07 0.1,0.1 0.1,0.26l0.12 2.52c0,0.97 -0.06,3.02 -0.19,3.93 -0.07,0.47 -0.09,0.58 -0.72,0.92 -0.38,0.2 -0.63,0.38 -1.07,0.6l-2.22 1.08c-0.2,0.09 -0.37,0.15 -0.57,0.24 -1.32,0.59 -1.3,0.48 -2.49,0.01 -0.2,-0.08 -0.38,-0.15 -0.57,-0.24l-0.85 -0.39c-0.4,-0.2 -0.97,-0.45 -1.38,-0.68l-1.06 -0.6c-0.76,-0.47 -0.71,-0.4 -0.81,-1.68 -0.08,-1 -0.12,-2.11 -0.12,-3.19zm-0.64 3.85c-0.44,-0.23 -1.12,-0.79 -1.53,-1.11l-1.81 -1.62c0.55,-0.82 1.28,-1.42 1.93,-2.07 0.19,-0.19 1.18,-1.04 1.31,-1.11 0,1.03 -0.03,2.01 -0.03,3l0.12 2.91zm13.4 -5.91c0.29,0.15 0.71,0.57 0.89,0.71 0.21,0.16 1.65,1.58 1.83,1.78l0.55 0.69c-0.07,0.11 -1.04,0.99 -1.18,1.1 -0.15,0.12 -0.26,0.22 -0.42,0.34 -0.08,0.06 -0.12,0.1 -0.2,0.17l-0.64 0.51c-0.29,0.22 -0.58,0.44 -0.9,0.61l0.07 -1.45c0.03,-0.3 0.03,-0.76 0.03,-1.1 -0,-0.18 0.02,-0.22 0.03,-0.36 0.03,-0.51 -0.03,-0.97 -0.03,-1.49l0 -1.15c-0,-0.16 -0.03,-0.19 -0.03,-0.36zm-5.52 -4.31l1.33 -0.4c0.39,-0.11 1.99,-0.54 2.34,-0.57l0.15 0.4c0.12,0.39 0.7,2.77 0.7,3.12 -0.14,-0.03 -0.43,-0.23 -0.57,-0.31 -0.61,-0.36 -1.33,-0.79 -1.95,-1.11l-0.88 -0.45c-0.22,-0.11 -1,-0.43 -1.12,-0.67zm-6.94 2.55c0,-0.27 0.11,-0.7 0.17,-0.95 0.07,-0.33 0.14,-0.6 0.2,-0.92l0.35 -1.32c0.12,-0.37 0.16,-0.32 0.72,-0.2 0.14,0.03 0.33,0.07 0.47,0.11 0.31,0.08 0.59,0.14 0.89,0.23l1.3 0.37c0.13,0.04 0.32,0.12 0.44,0.13 -0.11,0.16 -1.36,0.79 -1.69,0.95 -0.11,0.06 -0.19,0.09 -0.3,0.15l-1.42 0.79c-0.22,0.13 -0.98,0.62 -1.13,0.65zm11.46 -3.64c0.45,-0.1 1.29,-0.09 1.82,-0.09 0.21,-0 0.29,0.03 0.51,0.03 0.67,-0 1.36,0.05 1.96,0.22 0.79,0.22 1.53,0.58 2.08,1.16 0.25,0.25 0.5,0.67 0.62,1.02 0.11,0.32 0.07,0.92 0.07,1.29 0,0.52 -0.13,0.94 -0.28,1.33 -0.33,0.84 -0.99,1.85 -1.53,2.53 -0.38,0.48 -0.41,0.47 -0.68,0.19 -0.06,-0.06 -0.06,-0.07 -0.11,-0.13 -0.41,-0.51 -1.05,-1.1 -1.54,-1.55 -0.09,-0.08 -0.13,-0.15 -0.23,-0.22 -0.11,-0.09 -0.16,-0.15 -0.26,-0.23 -0.29,-0.23 -1.37,-1.16 -1.58,-1.27 0,-0.57 -0.47,-2.65 -0.61,-3.21 -0.05,-0.21 -0.24,-0.89 -0.24,-1.06zm-16.28 7.94l-1.43 -1.91c-0.1,-0.17 -0.19,-0.33 -0.29,-0.53l-0.14 -0.28c-0.32,-0.72 -0.41,-1.15 -0.41,-1.98 0,-1.96 1.56,-2.79 3.24,-3.19 0.73,-0.17 2.1,-0.16 2.92,-0.11 0.15,0.01 0.33,0 0.49,-0 0.2,-0 0.28,0.03 0.45,0.03l-0.59 2.59c-0.09,0.44 -0.19,0.92 -0.23,1.38 -0.03,0.36 -0.42,0.59 -0.74,0.87l-1.06 0.91c-0.09,0.08 -0.12,0.09 -0.21,0.18l-1.61 1.61c-0.08,0.08 -0.1,0.13 -0.18,0.21 -0.08,0.08 -0.12,0.16 -0.2,0.22zm8.88 -12.89c0.14,0.09 0.23,0.29 0.59,0.56 0.6,0.45 1.52,0.41 2.13,0.03 0.21,-0.13 0.31,-0.25 0.43,-0.45 0.04,-0.06 0.07,-0.15 0.15,-0.15 0.24,0 1.12,0.95 1.4,1.33 0.51,0.68 1.02,1.53 1.34,2.33 0.06,0.16 0.25,0.54 0.26,0.68 -0.49,0.01 -3.03,0.76 -3.53,0.93 -0.16,0.06 -1.02,0.38 -1.11,0.38l-0.55 -0.18c-1.08,-0.36 -2.36,-0.78 -3.48,-1.01 -0.1,-0.02 -0.54,-0.11 -0.61,-0.15 0.02,-0.1 0.08,-0.23 0.13,-0.33 0.45,-1.13 1.22,-2.52 2.08,-3.38 0.15,-0.15 0.59,-0.5 0.77,-0.6z"/>
   <path class="fil0" d="M9.94 15.37c0,0.74 0.02,1.13 0.36,1.82 0.11,0.21 0.18,0.35 0.31,0.54 0.12,0.18 0.26,0.31 0.41,0.47 0.17,0.17 0.26,0.26 0.46,0.39 1.28,0.86 2.98,0.91 4.22,0.02 0.85,-0.61 1.58,-1.73 1.58,-2.79 0,-0.74 -0.03,-1.15 -0.36,-1.82 -0.43,-0.84 -0.98,-1.37 -1.8,-1.78 -0.42,-0.21 -0.98,-0.32 -1.48,-0.31l-0.81 0.08c-0.64,0.11 -1.31,0.49 -1.76,0.93 -0.58,0.57 -1.13,1.62 -1.13,2.45z"/>
  </g>
 </g>
</svg>
