<?xml version="1.0" encoding="UTF-8"?>
<!DOCTYPE svg PUBLIC "-//W3C//DTD SVG 1.1//EN" "http://www.w3.org/Graphics/SVG/1.1/DTD/svg11.dtd">
<!-- Creator: CorelDRAW 2018 -->
<svg xmlns="http://www.w3.org/2000/svg" xml:space="preserve" version="1.1" style="shape-rendering:geometricPrecision; text-rendering:geometricPrecision; image-rendering:optimizeQuality; fill-rule:evenodd; clip-rule:evenodd"
viewBox="0 0 21.49 14.9"
 xmlns:xlink="http://www.w3.org/1999/xlink">
 <defs>
  <style type="text/css">
   <![CDATA[
    .fil0 {fill:#264796}
   ]]>
  </style>
 </defs>
 <g id="подменю_x0020_2_x0020_значок_x0020_видео">
  <metadata id="CorelCorpID_0Corel-Layer"/>
  <path class="fil0" d="M8.76 4.59c0,-0.43 0.05,-0.78 0.49,-0.8 0.3,-0.01 0.63,0.31 0.83,0.45 0.49,0.35 0.96,0.7 1.45,1.06 0.52,0.38 0.99,0.73 1.45,1.05 0.28,0.19 0.51,0.37 0.73,0.53 0.22,0.16 0.57,0.37 0.39,0.82 -0.08,0.2 -3.8,2.84 -4.31,3.22 -0.27,0.2 -0.59,0.4 -0.88,0.09 -0.21,-0.22 -0.15,-0.74 -0.15,-1.11l0 -5.3zm-8.74 4.24c0.05,0.91 0.19,3.5 0.44,4.12 0.51,1.29 1.52,1.37 3,1.51 2.58,0.24 6.11,0.54 8.67,0.39 1.44,-0.08 2.9,-0.08 4.33,-0.24 2.05,-0.24 4.35,0.03 4.67,-2.13 0.27,-1.83 0.42,-4.59 0.33,-6.4 -0.05,-0.9 -0.16,-3.47 -0.43,-4.17 -0.49,-1.27 -1.51,-1.36 -3.01,-1.51 -4.35,-0.44 -8.61,-0.58 -13.01,-0.15 -2.16,0.21 -4.34,0.04 -4.66,2.14 -0.27,1.74 -0.42,4.67 -0.33,6.44z"/>
 </g>
</svg>
